<?xml version="1.0" encoding="UTF-8" standalone="no"?>
<svg
   width="32"
   height="32"
   viewBox="0 0 24 24"
   fill="none"
   stroke="#EF4444"
   stroke-width="2.5"
   stroke-linecap="round"
   stroke-linejoin="round"
   version="1.1"
   id="svg3"
   sodipodi:docname="favicon.svg"
   inkscape:version="1.4.2 (f4327f4, 2025-05-13)"
   xmlns:inkscape="http://www.inkscape.org/namespaces/inkscape"
   xmlns:sodipodi="http://sodipodi.sourceforge.net/DTD/sodipodi-0.dtd"
   xmlns="http://www.w3.org/2000/svg"
   xmlns:svg="http://www.w3.org/2000/svg">
  <defs
     id="defs3" />
  <sodipodi:namedview
     id="namedview3"
     pagecolor="#505050"
     bordercolor="#ffffff"
     borderopacity="1"
     inkscape:showpageshadow="0"
     inkscape:pageopacity="0"
     inkscape:pagecheckerboard="1"
     inkscape:deskcolor="#505050"
     inkscape:zoom="12.609375"
     inkscape:cx="17.130112"
     inkscape:cy="15.266419"
     inkscape:window-width="1920"
     inkscape:window-height="1009"
     inkscape:window-x="-8"
     inkscape:window-y="-8"
     inkscape:window-maximized="1"
     inkscape:current-layer="svg3" />
  <line
     x1="3"
     y1="22"
     x2="15"
     y2="22"
     id="line1"
     style="stroke-width:3.75;stroke-dasharray:none" />
  <line
     x1="4"
     y1="9"
     x2="14"
     y2="9"
     id="line2"
     style="stroke-width:3.75;stroke-dasharray:none" />
  <path
     d="M14 22V4a2 2 0 0 0-2-2H6a2 2 0 0 0-2 2v18"
     id="path2"
     style="stroke-width:3.75;stroke-dasharray:none" />
  <path
     d="M14 13h2a2 2 0 0 1 2 2v2a2 2 0 0 0 2 2h0a2 2 0 0 0 2-2V9.83a2 2 0 0 0-.59-1.42L18 5"
     id="path3"
     style="stroke-width:3.75;stroke-dasharray:none" />
</svg>
