<?xml version="1.0" encoding="UTF-8" standalone="no"?>
<svg
   width="210"
   height="32"
   viewBox="0 0 157.5 24"
   fill="none"
   stroke="#ef4444"
   stroke-width="2.5"
   stroke-linecap="round"
   stroke-linejoin="round"
   version="1.1"
   id="svg3"
   sodipodi:docname="logo.svg"
   inkscape:version="1.4.2 (f4327f4, 2025-05-13)"
   xmlns:inkscape="http://www.inkscape.org/namespaces/inkscape"
   xmlns:sodipodi="http://sodipodi.sourceforge.net/DTD/sodipodi-0.dtd"
   xmlns="http://www.w3.org/2000/svg"
   xmlns:svg="http://www.w3.org/2000/svg">
  <defs
     id="defs3" />
  <sodipodi:namedview
     id="namedview3"
     pagecolor="#505050"
     bordercolor="#ffffff"
     borderopacity="1"
     inkscape:showpageshadow="0"
     inkscape:pageopacity="0"
     inkscape:pagecheckerboard="1"
     inkscape:deskcolor="#505050"
     inkscape:zoom="2.2290436"
     inkscape:cx="53.834747"
     inkscape:cy="-54.507681"
     inkscape:window-width="1920"
     inkscape:window-height="1009"
     inkscape:window-x="-8"
     inkscape:window-y="-8"
     inkscape:window-maximized="1"
     inkscape:current-layer="svg3" />
  <line
     x1="3"
     y1="22"
     x2="15"
     y2="22"
     id="line1"
     style="stroke-width:3.75;stroke-dasharray:none" />
  <line
     x1="4"
     y1="9"
     x2="14"
     y2="9"
     id="line2"
     style="stroke-width:3.75;stroke-dasharray:none" />
  <path
     d="M 14,22 V 4 A 2,2 0 0 0 12,2 H 6 A 2,2 0 0 0 4,4 v 18"
     id="path2"
     style="stroke-width:3.75;stroke-dasharray:none" />
  <path
     d="m 14,13 h 2 a 2,2 0 0 1 2,2 v 2 a 2,2 0 0 0 2,2 v 0 a 2,2 0 0 0 2,-2 V 9.83 A 2,2 0 0 0 21.41,8.41 L 18,5"
     id="path3"
     style="stroke-width:3.75;stroke-dasharray:none" />
  <text
     xml:space="preserve"
     style="font-style:normal;font-variant:normal;font-weight:normal;font-stretch:normal;font-size:30px;font-family:Viga;-inkscape-font-specification:'Viga 600';text-align:start;letter-spacing:-2.625px;word-spacing:0px;writing-mode:lr-tb;direction:ltr;text-anchor:start;fill:#ef4444;fill-opacity:1;fill-rule:evenodd;stroke:none;stroke-width:3.75;stroke-linejoin:round;stroke-miterlimit:0;paint-order:markers fill stroke"
     x="26.271152"
     y="23.831766"
     id="text1"><tspan
       sodipodi:role="line"
       id="tspan1"
       style="font-style:normal;font-variant:normal;font-weight:normal;font-stretch:normal;font-size:30px;font-family:Viga;-inkscape-font-specification:'Viga 600';letter-spacing:-2.625px;word-spacing:0px;fill:#ef4444;fill-opacity:1;stroke:none;stroke-width:3.75"
       x="26.271152"
       y="23.831766">TankTinder</tspan></text>
</svg>
